<?xml version="1.0" encoding="UTF-8"?><svg id="_レイヤー_2" xmlns="http://www.w3.org/2000/svg" viewBox="0 0 163 173"><defs><style>.cls-1{fill:#1f1fdd;}.cls-2{fill:#fff;}.cls-3{fill:#180d21;}.cls-4{fill:#e21331;}</style></defs><g id="_デザイン"><path class="cls-2" d="M0,0h163v158c0,8.28-6.72,15-15,15H15c-8.28,0-15-6.72-15-15V0h0Z"/><path d="M33.85,126.66c0-.91.17-1.76.52-2.58.35-.81.83-1.53,1.44-2.16.61-.63,1.33-1.12,2.14-1.48.81-.36,1.68-.54,2.61-.54s1.78.18,2.59.54c.81.36,1.53.85,2.16,1.48.63.63,1.12,1.34,1.47,2.16.35.81.53,1.67.53,2.58s-.18,1.8-.53,2.61c-.35.81-.84,1.52-1.47,2.14-.63.61-1.34,1.09-2.16,1.44-.81.35-1.68.52-2.59.52s-1.8-.17-2.61-.52c-.81-.35-1.52-.83-2.14-1.44-.61-.61-1.09-1.33-1.44-2.14-.35-.81-.52-1.68-.52-2.61M36.54,126.66c0,.58.1,1.13.31,1.64.21.51.5.95.88,1.34.38.39.81.69,1.31.9.5.21,1.03.32,1.62.32s1.08-.11,1.57-.32c.48-.21.9-.52,1.26-.9.36-.39.64-.83.84-1.34.2-.51.3-1.05.3-1.64s-.1-1.15-.31-1.66c-.21-.51-.5-.96-.86-1.35-.36-.39-.79-.69-1.28-.9-.49-.21-1.02-.32-1.59-.32s-1.1.11-1.59.32c-.49.21-.92.52-1.29.9-.37.39-.66.84-.86,1.35-.2.51-.3,1.07-.3,1.66"/><path d="M49.1,126.66c0-.91.17-1.76.52-2.58.35-.81.83-1.53,1.44-2.16.61-.63,1.33-1.12,2.14-1.48.81-.36,1.68-.54,2.61-.54s1.78.18,2.59.54c.81.36,1.53.85,2.16,1.48.63.63,1.11,1.34,1.47,2.16.35.81.53,1.67.53,2.58s-.18,1.8-.53,2.61c-.35.81-.84,1.52-1.47,2.14-.63.61-1.34,1.09-2.16,1.44-.81.35-1.68.52-2.59.52s-1.8-.17-2.61-.52c-.81-.35-1.52-.83-2.14-1.44-.61-.61-1.09-1.33-1.44-2.14-.35-.81-.52-1.68-.52-2.61M51.78,126.66c0,.58.1,1.13.31,1.64.21.51.5.95.88,1.34.38.39.81.69,1.31.9.49.21,1.03.32,1.62.32s1.08-.11,1.57-.32c.48-.21.9-.52,1.26-.9.36-.39.64-.83.84-1.34.2-.51.3-1.05.3-1.64s-.1-1.15-.31-1.66c-.21-.51-.5-.96-.86-1.35-.36-.39-.79-.69-1.28-.9-.49-.21-1.02-.32-1.59-.32s-1.1.11-1.59.32c-.49.21-.92.52-1.29.9-.37.39-.66.84-.86,1.35-.2.51-.3,1.07-.3,1.66"/><polygon points="63.89 120.06 72.77 120.06 72.77 122.56 69.56 122.56 69.56 133.22 66.97 133.22 66.97 122.56 63.89 122.56 63.89 120.06"/><path d="M73.75,126.66c0-.91.17-1.76.52-2.58.35-.81.83-1.53,1.44-2.16.61-.63,1.33-1.12,2.14-1.48.81-.36,1.68-.54,2.61-.54s1.78.18,2.59.54c.81.36,1.53.85,2.16,1.48.63.63,1.11,1.34,1.47,2.16.35.81.53,1.67.53,2.58s-.18,1.8-.53,2.61c-.35.81-.84,1.52-1.47,2.14-.63.61-1.34,1.09-2.16,1.44-.81.35-1.68.52-2.59.52s-1.8-.17-2.61-.52c-.81-.35-1.52-.83-2.14-1.44-.61-.61-1.09-1.33-1.44-2.14-.35-.81-.52-1.68-.52-2.61M76.43,126.66c0,.58.1,1.13.31,1.64.21.51.5.95.88,1.34.38.39.81.69,1.31.9.49.21,1.03.32,1.62.32s1.08-.11,1.57-.32c.48-.21.9-.52,1.26-.9.36-.39.64-.83.84-1.34.2-.51.3-1.05.3-1.64s-.1-1.15-.31-1.66c-.21-.51-.5-.96-.86-1.35-.36-.39-.79-.69-1.28-.9-.49-.21-1.02-.32-1.59-.32s-1.1.11-1.59.32c-.49.21-.92.52-1.29.9-.37.39-.66.84-.86,1.35-.2.51-.3,1.07-.3,1.66"/><path d="M93.43,120.06c1.09,0,2,.18,2.76.55.75.36,1.32.88,1.72,1.54.39.66.59,1.45.59,2.35,0,.54-.08,1.08-.24,1.62-.16.54-.42,1.03-.77,1.48-.35.44-.82.8-1.41,1.06-.59.27-1.32.4-2.17.4h-1.86v4.17h-2.59v-13.17h3.99ZM93.88,126.53c.39,0,.72-.07.98-.21.26-.14.47-.31.62-.52.15-.21.26-.43.32-.65.07-.23.1-.42.1-.59,0-.13-.02-.31-.06-.53-.04-.22-.13-.44-.26-.67-.13-.23-.33-.42-.6-.57-.27-.15-.63-.23-1.08-.23h-1.86v3.97h1.84Z"/><path d="M103.15,128.36c0,.42.13.82.38,1.2.25.38.58.69.99.93.41.24.86.36,1.35.36.54,0,1.01-.12,1.43-.36.42-.24.75-.55.99-.93.24-.38.37-.78.37-1.2v-8.3h2.56v8.36c0,.97-.24,1.82-.72,2.57-.48.75-1.12,1.33-1.93,1.75-.81.42-1.71.63-2.7.63s-1.87-.21-2.68-.63c-.8-.42-1.45-1.01-1.92-1.75s-.72-1.6-.72-2.57v-8.36h2.59v8.3Z"/><path d="M121.38,123.24c-.5-.27-1.01-.5-1.53-.68-.52-.18-1.01-.27-1.46-.27-.56,0-1,.11-1.32.34-.32.23-.48.57-.48,1.02,0,.31.12.59.37.83.24.24.56.46.95.65.39.19.79.36,1.21.52.38.14.76.31,1.14.51.38.2.71.44,1.01.73s.54.66.72,1.09c.18.44.27.97.27,1.6,0,.67-.17,1.29-.52,1.86-.35.57-.85,1.04-1.52,1.39-.67.35-1.49.53-2.47.53-.5,0-1.01-.05-1.53-.15-.52-.1-1.03-.26-1.53-.47-.5-.21-.98-.47-1.45-.8l1.15-2.02c.31.23.65.43,1.01.6.36.17.73.31,1.1.4.37.1.71.14,1.02.14s.62-.05.94-.13c.32-.09.58-.24.79-.46.21-.21.31-.51.31-.89,0-.26-.09-.5-.26-.72-.17-.21-.41-.41-.7-.59-.29-.18-.61-.33-.96-.46-.41-.16-.82-.33-1.25-.54-.43-.2-.83-.45-1.21-.74-.38-.29-.68-.66-.91-1.09-.23-.43-.35-.97-.35-1.6,0-.76.17-1.43.51-1.99.34-.56.82-1,1.44-1.33.62-.33,1.34-.51,2.15-.55,1.06,0,1.92.13,2.59.38.66.25,1.26.55,1.78.89l-.98,1.99Z"/><path d="M49.41,140.01c0,.25-.08.44-.25.62-.2.2-.35.25-.63.25h-.54c-.32,0-.45-.09-.62-.25-.22-.22-.25-.37-.25-.62v-1.56c0-.25.08-.44.25-.62.2-.2.35-.26.63-.26h.54c.32,0,.45.09.61.26.22.22.26.37.26.62v1.56ZM47.47,140.06c0,.09.02.15.11.27.02.03.05.05.08.08.06.06.11.1.26.1.18,0,.41,0,.66,0,.12,0,.17-.01.26-.1.03-.03.06-.05.08-.08.09-.11.11-.16.11-.26v-1.68c0-.09-.02-.15-.11-.26-.02-.03-.05-.05-.08-.08-.06-.06-.11-.11-.26-.11-.19,0-.41,0-.66,0-.12,0-.17.02-.26.11-.03.02-.06.05-.08.08-.1.11-.11.15-.11.26v1.67Z"/><path d="M51.39,138.38c.3,0,.43.07.62.26.17.17.25.31.25.61v.75c0,.33-.1.44-.25.62-.22.23-.35.25-.62.25h-.7v.9c0,.1-.08.18-.18.18s-.18-.08-.18-.19v-3.01c0-.2.17-.38.39-.38h.67ZM51.71,138.84c-.09-.09-.14-.11-.26-.11h-.76v1.77h.75c.09,0,.16-.01.26-.11.02-.03.06-.06.09-.09.09-.1.11-.16.11-.26v-.86c0-.09-.02-.17-.11-.26-.03-.02-.05-.05-.08-.08"/><path d="M54.68,138.37c.21,0,.39.17.39.39v.64c0,.21-.18.39-.39.39h-1.22v.27c0,.12.02.17.11.26.03.03.05.05.08.08.09.09.16.11.26.11h.79v-.21c0-.1.08-.18.18-.18s.18.08.18.18v.19c0,.21-.18.39-.39.39h-.7c-.31,0-.4-.04-.62-.25-.17-.17-.25-.25-.25-.62v-.75c0-.31.05-.41.25-.62.18-.18.29-.25.62-.25h.71ZM53.46,139.42h1.24v-.69h-.79c-.1,0-.16.02-.26.11-.03.03-.05.06-.08.08-.09.09-.11.14-.11.26v.24Z"/><path d="M56.47,138.73v2.01c0,.1-.08.18-.18.18s-.18-.08-.18-.18v-1.99c0-.23.18-.39.39-.39h.63c.35,0,.43.06.62.25.17.17.25.29.25.62v1.5c0,.1-.08.18-.18.18s-.18-.08-.18-.18v-1.56c0-.1,0-.16-.11-.26-.03-.03-.05-.05-.08-.08-.07-.07-.11-.11-.26-.11h-.72Z"/><path d="M63.65,139.78c0,.1-.08.18-.18.18h-.32c0,.23-.09.5-.25.67-.2.2-.35.25-.63.25h-.54c-.32,0-.45-.09-.62-.25-.22-.22-.26-.37-.26-.62v-1.56c0-.25.08-.44.25-.62.2-.2.35-.26.63-.26h.54c.32,0,.45.09.62.26.22.22.25.37.25.62v1.15h.32c.1,0,.18.08.18.18M62.79,139.96h-.76c-.1,0-.18-.08-.18-.18s.08-.18.18-.18h.76v-1.21c0-.09-.02-.15-.11-.26-.02-.03-.05-.05-.08-.08-.06-.06-.11-.11-.26-.11-.18,0-.41,0-.66,0-.12,0-.17.02-.26.11-.03.02-.06.05-.08.08-.09.11-.11.15-.11.26v1.67c0,.09.02.15.11.27.02.03.05.05.08.08.06.06.11.1.26.1.19,0,.41,0,.66,0,.12,0,.17-.01.26-.1.03-.03.06-.05.08-.08.1-.11.11-.16.11-.26v-.11Z"/><path d="M64.89,138.47v1.58c0,.14.03.19.11.26.03.03.05.05.08.08.1.09.16.11.26.11.09,0,.19,0,.28,0,.13,0,.19-.04.26-.11l.08-.08c.08-.08.11-.13.11-.26v-1.58c0-.1.08-.18.18-.18s.18.08.18.18v1.52c0,.29-.06.43-.25.62-.2.2-.31.25-.6.25h-.17c-.25,0-.4-.04-.62-.25-.21-.21-.25-.29-.25-.62v-1.52c0-.1.08-.18.18-.18s.18.08.18.18"/><path d="M69.11,139.13v-.4h-1.33c-.1,0-.18-.08-.18-.18s.08-.18.18-.18h1.31c.21,0,.39.18.39.39v1.72c0,.21-.17.39-.39.39h-.71c-.24,0-.43-.05-.63-.26-.19-.19-.25-.3-.25-.6s.06-.42.25-.6c.21-.21.35-.26.63-.26h.74ZM68.04,140.39c.08.08.16.11.26.11h.81v-1.01h-.81c-.1,0-.19.03-.26.11-.03.02-.05.05-.08.08-.08.08-.11.14-.11.26v.1c0,.11.02.17.11.26.03.03.05.05.08.08"/><path d="M70.83,138.73v2.01c0,.1-.08.18-.18.18s-.18-.08-.18-.18v-1.99c0-.23.18-.39.39-.39h.63c.35,0,.43.06.62.25.17.17.25.29.25.62v1.5c0,.1-.08.18-.18.18s-.18-.08-.18-.18v-1.56c0-.1,0-.16-.11-.26-.03-.03-.05-.05-.08-.08-.07-.07-.11-.11-.26-.11h-.72Z"/><path d="M74.2,138.38h.44c.1,0,.18.08.18.18s-.08.18-.18.18h-.44v1.77h.4c.1,0,.18.08.18.18s-.08.18-.18.18h-.37c-.21,0-.39-.18-.39-.39v-1.74h-.25c-.1,0-.18-.08-.18-.18s.08-.18.18-.18h.25v-.39c0-.1.08-.18.18-.18s.18.08.18.18v.39Z"/><path d="M76.15,138.47v1.58c0,.14.03.19.11.26.03.03.05.05.08.08.1.09.16.11.26.11.09,0,.19,0,.28,0,.13,0,.19-.04.26-.11l.08-.08c.08-.08.11-.13.11-.26v-1.58c0-.1.08-.18.18-.18s.18.08.18.18v1.52c0,.29-.06.43-.25.62-.2.2-.31.25-.6.25h-.17c-.25,0-.4-.04-.62-.25-.21-.21-.25-.29-.25-.62v-1.52c0-.1.08-.18.18-.18s.18.08.18.18"/><path d="M80.54,138.73v2.03c0,.1-.08.18-.18.18s-.18-.08-.18-.18v-1.52c0-.11-.04-.19-.11-.26-.04-.05-.09-.1-.14-.14-.07-.06-.14-.11-.26-.11h-.44v2.03c0,.1-.08.18-.18.18s-.18-.08-.18-.18v-2c0-.21.17-.39.39-.39h.43c.19,0,.36.08.49.21,0-.12.1-.21.22-.21h.57c.32,0,.42.06.62.25.24.24.25.35.25.62v1.52c0,.1-.08.18-.18.18s-.18-.08-.18-.18v-1.57c0-.13-.02-.17-.11-.26-.02-.03-.05-.05-.08-.08-.07-.07-.14-.11-.26-.11h-.49Z"/><path d="M85.93,137.93v2.85c0,.09-.08.18-.18.18s-.18-.08-.18-.18v-2.85h-.86c-.1,0-.18-.08-.18-.18s.08-.18.18-.18h2.09c.1,0,.18.08.18.18s-.08.18-.18.18h-.87Z"/><path d="M88.45,138.38c.28,0,.42.05.62.25.2.2.26.34.26.62v.75c0,.34-.08.44-.26.62-.2.2-.36.25-.62.25h-.28c-.24,0-.41-.05-.61-.25-.19-.19-.26-.3-.26-.62v-.75c0-.34.05-.41.26-.62.19-.19.35-.25.61-.25h.28ZM88.96,139.19c0-.13-.04-.18-.11-.26-.02-.03-.05-.05-.08-.08-.09-.09-.13-.1-.26-.11h-.39c-.13,0-.17.02-.26.11-.03.03-.05.05-.08.08-.09.09-.11.15-.11.26v.87c0,.1,0,.16.11.26.03.02.05.05.08.08.08.08.18.11.26.11h.39c.14,0,.17-.01.26-.11.03-.03.05-.06.08-.08.09-.09.11-.15.11-.26v-.87Z"/><path d="M91.34,138.38c.28,0,.42.05.62.25.2.2.26.34.26.62v.75c0,.34-.08.44-.26.62-.2.2-.36.25-.62.25h-.28c-.24,0-.41-.05-.61-.25-.19-.19-.26-.3-.26-.62v-.75c0-.34.05-.41.26-.62.19-.19.35-.25.61-.25h.28ZM91.85,139.19c0-.13-.04-.18-.11-.26-.02-.03-.05-.05-.08-.08-.09-.09-.13-.1-.26-.11h-.39c-.13,0-.17.02-.26.11-.03.03-.05.05-.08.08-.09.09-.11.15-.11.26v.87c0,.1,0,.16.11.26.03.02.05.05.08.08.08.08.18.11.26.11h.39c.14,0,.17-.01.26-.11.03-.03.05-.06.08-.08.09-.09.11-.15.11-.26v-.87Z"/><path d="M93.4,137.68c0-.1.08-.18.18-.18s.18.08.18.18v3.08c0,.1-.08.18-.18.18s-.18-.08-.18-.18v-3.08Z"/><path d="M96.52,138.38c.21,0,.39.17.39.39v.35c0,.1-.08.18-.18.18s-.18-.08-.18-.18v-.37h-.74c-.1,0-.17.01-.26.11-.03.03-.05.05-.08.08-.07.07-.11.16-.11.26v.86c0,.13.04.19.11.26.03.03.05.05.08.08.09.08.14.11.26.11.22,0,.56,0,.74,0v-.45c0-.1.08-.18.18-.18s.18.08.18.18v.43c0,.21-.17.38-.39.38h-.66c-.25,0-.41-.05-.62-.25-.17-.17-.25-.28-.25-.62v-.74c0-.31.1-.46.25-.62.21-.21.37-.25.62-.25h.66Z"/><path d="M98.94,138.38c.29,0,.41.05.62.25.2.2.25.35.25.61v1.51c0,.1-.08.18-.18.18-.09,0-.18-.08-.18-.18,0-.36,0-1.21,0-1.57,0-.11-.04-.18-.11-.26l-.08-.08c-.07-.07-.14-.11-.26-.11h-.7v2.02c0,.1-.08.18-.18.18s-.18-.08-.18-.18v-3.07c0-.1.08-.18.18-.18s.18.08.18.18v.69h.64Z"/><path d="M102.35,139.13v-.4h-1.33c-.1,0-.18-.08-.18-.18s.08-.18.18-.18h1.31c.21,0,.39.18.39.39v1.72c0,.21-.17.39-.39.39h-.71c-.24,0-.43-.05-.63-.26-.19-.19-.25-.3-.25-.6s.06-.42.25-.6c.21-.21.35-.26.63-.26h.74ZM101.28,140.39c.08.08.16.11.26.11h.81v-1.01h-.81c-.09,0-.19.03-.26.11-.03.02-.05.05-.08.08-.08.08-.11.14-.11.26v.1c0,.11.02.17.11.26.03.03.05.05.08.08"/><path d="M104.16,137.81c0,.1-.08.18-.18.18s-.18-.08-.18-.18v-.39c0-.1.08-.18.18-.18s.18.08.18.18v.39ZM103.8,138.51c0-.1.08-.18.18-.18s.18.08.18.18v2.24c0,.1-.08.18-.18.18s-.18-.08-.18-.18v-2.24Z"/><path d="M105.74,138.73v2.01c0,.1-.08.18-.18.18s-.18-.08-.18-.18v-1.99c0-.23.18-.39.39-.39h.63c.34,0,.43.06.62.25.17.17.25.29.25.62v1.5c0,.1-.08.18-.18.18s-.18-.08-.18-.18v-1.56c0-.1,0-.16-.11-.26-.03-.03-.05-.05-.08-.08-.07-.07-.11-.11-.26-.11h-.72Z"/><path d="M50.75,143.85h.47c.1,0,.18.08.18.18s-.08.18-.18.18h-.47v2.03c0,.1-.08.18-.18.18s-.18-.08-.18-.18v-2.03h-.35c-.1,0-.18-.08-.18-.18s.08-.18.18-.18h.35v-.44c0-.21.17-.39.39-.39h.39c.1,0,.18.08.18.18s-.08.18-.18.18h-.42v.47Z"/><path d="M53.36,143.85c.28,0,.42.05.62.25.2.2.26.34.26.62v.75c0,.34-.08.44-.26.62-.2.2-.36.25-.62.25h-.28c-.24,0-.41-.05-.61-.25-.19-.19-.26-.3-.26-.62v-.75c0-.34.05-.41.26-.62.19-.19.35-.25.61-.25h.28ZM53.87,144.66c0-.13-.04-.18-.11-.26-.02-.03-.05-.05-.08-.08-.09-.09-.13-.1-.26-.11h-.39c-.13,0-.17.02-.26.11-.03.03-.05.05-.08.08-.09.09-.11.15-.11.26v.87c0,.1,0,.16.11.26.03.02.05.05.08.08.08.08.18.11.26.11h.39c.14,0,.17-.01.26-.11.03-.03.05-.06.08-.08.09-.09.11-.15.11-.26v-.87Z"/><path d="M55.66,144.87v1.37c0,.09-.08.18-.18.18s-.18-.08-.18-.18v-2.26c0-.1.08-.18.18-.18s.18.08.18.18v.39l.32-.32c.2-.2.22-.21.52-.21.1,0,.18.08.18.18s-.08.18-.18.18h-.16l-.68.68Z"/><path d="M61.35,145.48c0,.25-.08.44-.25.62-.2.2-.35.25-.63.25h-.54c-.32,0-.45-.09-.62-.25-.22-.22-.25-.37-.25-.62v-1.56c0-.25.08-.44.25-.62.2-.2.35-.26.63-.26h.54c.32,0,.45.09.61.26.22.22.26.37.26.62v1.56ZM59.42,145.54c0,.09.02.15.11.27.02.03.05.05.08.08.06.06.11.1.26.1.18,0,.41,0,.66,0,.12,0,.17-.01.26-.1.03-.03.06-.05.08-.08.09-.11.11-.16.11-.26v-1.68c0-.09-.02-.15-.11-.26-.02-.03-.05-.05-.08-.08-.06-.06-.11-.11-.26-.11-.19,0-.41,0-.66,0-.12,0-.17.02-.26.11-.03.02-.06.05-.08.08-.1.11-.11.15-.11.26v1.67Z"/><path d="M62.8,144.99v1.28c0,.1-.08.18-.18.18s-.18-.08-.18-.18v-2.84c0-.21.17-.39.39-.39h.94c.34,0,.45.1.61.26.21.21.26.35.26.61v.19c0,.33-.06.44-.26.62-.18.18-.31.26-.61.26h-.97ZM64.09,143.52c-.08-.08-.15-.11-.26-.11h-1.03v1.22h1.03c.12,0,.19-.04.26-.11.03-.03.06-.05.08-.08.08-.08.11-.16.11-.26v-.31c0-.1-.04-.19-.11-.26l-.08-.08Z"/><path d="M67.1,143.84c.21,0,.39.17.39.39v.64c0,.21-.18.39-.39.39h-1.22v.27c0,.12.02.17.11.26.03.03.05.05.08.08.09.09.16.11.26.11h.79v-.21c0-.1.08-.18.18-.18s.18.08.18.18v.19c0,.21-.18.39-.39.39h-.7c-.31,0-.4-.04-.62-.25-.17-.17-.25-.25-.25-.62v-.75c0-.31.05-.41.25-.62.18-.18.29-.25.62-.25h.71ZM65.88,144.9h1.24v-.69h-.79c-.1,0-.16.02-.26.11-.03.03-.05.06-.08.08-.09.09-.11.14-.11.26v.24Z"/><path d="M69.06,144.87v1.37c0,.09-.08.18-.18.18s-.18-.08-.18-.18v-2.26c0-.1.08-.18.18-.18s.18.08.18.18v.39l.32-.32c.2-.2.22-.21.52-.21.1,0,.18.08.18.18s-.08.18-.18.18h-.16l-.68.68Z"/><path d="M72.6,144.61v-.4h-1.33c-.1,0-.18-.08-.18-.18s.08-.18.18-.18h1.31c.21,0,.39.18.39.39v1.72c0,.21-.17.39-.39.39h-.71c-.24,0-.43-.05-.63-.26-.19-.19-.25-.3-.25-.6s.06-.42.25-.6c.21-.21.35-.26.63-.26h.74ZM71.53,145.87c.08.08.16.11.26.11h.81v-1.01h-.81c-.09,0-.19.03-.26.11-.03.02-.05.05-.08.08-.08.08-.11.14-.11.26v.1c0,.11.02.17.11.26.03.03.05.05.08.08"/><path d="M74.73,143.85h.44c.1,0,.18.08.18.18s-.08.18-.18.18h-.44v1.77h.4c.1,0,.18.08.18.18s-.08.18-.18.18h-.37c-.21,0-.39-.18-.39-.39v-1.74h-.25c-.1,0-.18-.08-.18-.18s.08-.18.18-.18h.25v-.39c0-.1.08-.18.18-.18s.18.08.18.18v.39Z"/><path d="M77.38,143.85c.28,0,.42.05.62.25.2.2.26.34.26.62v.75c0,.34-.08.44-.26.62-.2.2-.36.25-.62.25h-.28c-.24,0-.41-.05-.61-.25-.19-.19-.26-.3-.26-.62v-.75c0-.34.05-.41.26-.62.19-.19.35-.25.61-.25h.28ZM77.89,144.66c0-.13-.04-.18-.11-.26-.02-.03-.05-.05-.08-.08-.09-.09-.13-.1-.26-.11h-.39c-.13,0-.17.02-.26.11-.03.03-.05.05-.08.08-.09.09-.11.15-.11.26v.87c0,.1,0,.16.11.26.03.02.05.05.08.08.08.08.18.11.26.11h.39c.14,0,.17-.01.26-.11.03-.03.05-.06.08-.08.09-.09.11-.15.11-.26v-.87Z"/><path d="M79.68,144.87v1.37c0,.09-.08.18-.18.18s-.18-.08-.18-.18v-2.26c0-.1.08-.18.18-.18s.18.08.18.18v.39l.32-.32c.2-.2.22-.21.52-.21.1,0,.18.08.18.18s-.08.18-.18.18h-.16l-.68.68Z"/><path d="M83.19,145.79c0,.14-.06.29-.16.39-.1.1-.24.16-.39.16h-.57c-.19,0-.26-.03-.39-.16-.11-.11-.16-.19-.16-.39v-.23c0-.1.08-.18.18-.18s.18.08.18.18v.23c0,.06,0,.08.06.14.03.04.08.05.14.05h.57c.06,0,.09,0,.14-.05.05-.05.05-.09.05-.14v-.19c0-.12-.03-.16-.15-.2l-.78-.25c-.21-.06-.37-.25-.37-.5v-.25c0-.2.05-.29.16-.39.11-.11.2-.16.39-.16h.57c.21,0,.28.05.39.16.12.12.16.2.16.39v.2c0,.1-.08.18-.18.18s-.18-.08-.18-.18v-.2c0-.07-.02-.1-.06-.14-.03-.04-.07-.06-.15-.06h-.55c-.06,0-.09,0-.14.06-.04.04-.05.07-.05.14v.21c0,.12.04.17.14.2l.79.25c.22.06.37.27.37.49v.23Z"/><path d="M88.53,145.77c-.05.08-.17.1-.25.05l-.38-.22c0,.15,0,.23-.13.39l-.08.08c-.2.2-.36.27-.66.27h-.37c-.27,0-.41-.05-.62-.25-.24-.25-.25-.35-.25-.62v-.05c0-.34.14-.47.34-.58l.34-.2-.25-.16c-.25-.16-.32-.25-.32-.6v-.07c0-.22.03-.37.23-.57.15-.15.3-.22.59-.22h.3c.29,0,.43.08.58.24.21.21.23.34.23.55v.08c0,.23-.03.39-.34.58-.1.06-.22.13-.34.2l.43.28.16.1.28-.25c.1-.1.22-.11.3-.05.09.08.06.2-.02.28l-.25.21.44.28c.08.05.1.16.05.25M87.58,145.37l-.76-.51c-.2.12-.4.24-.52.31-.1.05-.13.11-.13.23v.13c0,.1.04.19.11.26.02.02.05.05.08.08.07.07.16.12.26.12h.5c.1,0,.18-.05.26-.11.05-.04.07-.06.1-.09.11-.13.1-.18.1-.26v-.16ZM86.82,144.46l.51-.3c.06-.04.13-.11.13-.24v-.12c0-.11,0-.15-.09-.28,0,0-.03-.03-.04-.05-.06-.06-.16-.1-.29-.1h-.38c-.07,0-.2.02-.29.11,0,0-.02.02-.03.03-.05.05-.09.16-.09.28v.14c0,.13.04.18.13.24l.44.29Z"/><path d="M93.24,145.48c0,.31-.06.42-.26.62-.17.17-.3.25-.61.25h-.52c-.22,0-.41-.05-.62-.25-.2-.2-.25-.26-.25-.62v-2.35c0-.1.08-.18.18-.18s.18.08.18.18v2.41c0,.14.03.18.11.26.03.03.06.05.08.08.08.08.15.1.27.11.24,0,.42,0,.63,0,.13,0,.18-.03.26-.1.03-.03.06-.05.09-.08.1-.11.11-.16.11-.26v-2.41c0-.1.08-.18.18-.18s.18.08.18.18v2.35Z"/><path d="M96.42,145.48c0,.32-.06.4-.25.62-.22.24-.34.25-.62.25h-.38c-.29,0-.41-.05-.62-.25-.17-.17-.25-.25-.25-.62v-.31c0-.1.08-.18.18-.18s.18.08.18.18v.36c0,.15.04.19.11.26.03.03.05.06.08.08.07.07.16.11.26.11.17,0,.33,0,.49,0,.13,0,.17-.04.26-.11.03-.02.06-.05.08-.08.1-.12.1-.15.11-.26,0-.09,0-.23,0-.34,0-.09-.06-.17-.15-.2l-1.22-.29c-.22-.07-.37-.27-.37-.5v-.29c0-.29.03-.39.25-.61.21-.21.32-.25.62-.25h.34c.33,0,.43.06.61.25.18.18.26.3.26.62v.23c0,.1-.08.18-.18.18s-.18-.08-.18-.18c0-.06,0-.23,0-.29,0-.13-.04-.19-.11-.26l-.08-.08c-.08-.08-.15-.11-.26-.11h-.46c-.13,0-.16,0-.26.11-.03.03-.05.05-.08.08-.07.07-.1.12-.11.26,0,.06,0,.22,0,.3,0,.13.05.17.15.2l1.22.3c.22.07.37.27.37.5v.31Z"/><path d="M99.03,143.84c.21,0,.39.17.39.39v.64c0,.21-.18.39-.39.39h-1.22v.27c0,.12.02.17.11.26.03.03.05.05.08.08.09.09.16.11.26.11h.79v-.21c0-.1.08-.18.18-.18s.18.08.18.18v.19c0,.21-.18.39-.39.39h-.7c-.31,0-.4-.04-.62-.25-.17-.17-.25-.25-.25-.62v-.75c0-.31.05-.41.25-.62.18-.18.29-.25.62-.25h.71ZM97.81,144.9h1.24v-.69h-.79c-.1,0-.16.02-.26.11-.03.03-.05.06-.08.08-.09.09-.11.14-.11.26v.24Z"/><path d="M100.99,144.87v1.37c0,.09-.08.18-.18.18s-.18-.08-.18-.18v-2.26c0-.1.08-.18.18-.18s.18.08.18.18v.39l.32-.32c.2-.2.22-.21.52-.21.1,0,.18.08.18.18s-.08.18-.18.18h-.16l-.68.68Z"/><path d="M104.5,145.79c0,.14-.06.29-.16.39-.1.1-.24.16-.39.16h-.57c-.19,0-.26-.03-.39-.16-.11-.11-.16-.19-.16-.39v-.23c0-.1.08-.18.18-.18s.18.08.18.18v.23c0,.06,0,.08.06.14.03.04.08.05.14.05h.57c.06,0,.09,0,.14-.05.05-.05.05-.09.05-.14v-.19c0-.12-.03-.16-.15-.2l-.78-.25c-.21-.06-.37-.25-.37-.5v-.25c0-.2.05-.29.16-.39.11-.11.2-.16.39-.16h.57c.21,0,.28.05.39.16.12.12.16.2.16.39v.2c0,.1-.08.18-.18.18s-.18-.08-.18-.18v-.2c0-.07-.02-.1-.06-.14-.03-.04-.07-.06-.15-.06h-.55c-.06,0-.09,0-.14.06-.04.04-.05.07-.05.14v.21c0,.12.04.17.15.2l.79.25c.22.06.37.27.37.49v.23Z"/><rect x="57.85" y="127.45" width="2.5" height="6.42" transform="translate(-75.08 80.06) rotate(-45)"/><path class="cls-4" d="M74.62,70.95s0-.02,0-.04c-.01-.06-.01-.12-.01-.19h0c0-.07,0-.14,0-.21,0-.13-.01-.27-.02-.39,0-.06-.01-.12-.01-.19-.35-2.6-2.56-2.6-5.1-1.51-.74,1.25-2.15,2.31-4.72,2.89-2.22,1.83-4.1,4.41-4.36,4.77-.02.03-.03.04-.03.04-2.04,2.9-5.82,4.09-9.12,2.55-1.31-.61-2.35-1.56-3.08-2.69-.17.39-.3.8-.4,1.23-.9,3.94,1.56,7.86,5.5,8.76,3.55.81,6.99-1.14,8.38-4.41,0,0,0-.02.02-.05.19-.43,1.64-3.68,3.59-5.98,0-.01.01-.02.02-.02.11-.12.21-.24.32-.36.02-.02.04-.04.05-.06.05-.06.11-.12.17-.18h-.02c3.09-3.31,7.13-6.02,8.44-2.39.01.06.04.12.05.18.04.11.08.25.11.38.02.06.04.13.05.19h0c.01.07.03.13.05.19,0,.01,0,.02,0,.04.01.06.03.12.05.18.07-.73.09-1.46.09-2.16,0-.19,0-.38-.01-.57"/><path class="cls-4" d="M91.4,84.9c-.01.06-.02.13-.04.2-.3,1.53-1.1,3.51-2.65,6.05-.03.05-.06.1-.09.15-.05,2.93,1.04,5.77,1.82,7.33,1.81,3.62.33,8.01-3.27,9.82-.02.01-.05.02-.08.04.04.02.07.04.11.05,2.4,1.03,5.27.74,7.45-1.01,3.15-2.52,3.67-7.12,1.14-10.28-1.96-2.45-5.8-8.78-1.73-13.91.05-.07.11-.13.16-.2-1,.44-1.84.96-2.54,1.53-.09.08-.18.16-.27.23"/><path class="cls-4" d="M68.2,53.56s.07-.04.11-.06c.08-.04.16-.08.24-.12.02-.01.05-.03.08-.04,2.76-1.54,4.37-4,5.22-6.3,0,0,0-.01,0-.01,3.68-9.66,13.01-16.53,23.96-16.55,3.62,0,7.07.74,10.2,2.09-5.52-3.57-12.41-5.01-19.34-3.51-10.7,2.32-18.38,11-19.95,21.21,0,0,0,0,0,.01-.17,1.13-.49,2.34-1.02,3.51.13-.06.27-.12.39-.18.03-.02.06-.04.1-.05"/><path class="cls-4" d="M47.7,68.95c.2-.43.44-.84.71-1.21,1.7-2.33,4.63-3.44,7.44-2.84.13.03.27.06.4.1,0,0,0,0,.01,0,6-3.81,13.06-5.97,13.86-.35.02.14.05.26.08.37,0,.15,0,.29,0,.43.26-.2.48-.41.68-.64.62-.73.99-1.6,1.2-2.49.04-.19.09-.38.12-.56,0-.12-.01-.24,0-.38.26-3.69-2.77-4.71-6.77-4.28-.16.15-.32.3-.49.45-.02.02-.05.04-.07.06-.07.06-.14.12-.22.17-.04.02-.07.05-.1.08-.03.02-.06.05-.09.07-2.63,2.08-6.64,3.81-12.25,4.03-.08,0-.16,0-.23-.01-.28.18-.54.37-.79.55-1.45,1.08-3.2,2.99-3.2,2.99-2.65,2.42-6.69,2.87-9.88.86-1.35-.86-2.37-2.05-3.02-3.39-.92.85-1.66,1.93-2.13,3.19-1.56,4.25.62,8.96,4.87,10.52,3.48,1.28,7.28.04,9.39-2.8-.41-1.58-.29-3.31.46-4.91"/><path class="cls-4" d="M85.11,79.7c-.2-.01-.41-.02-.61-.03-4.14-.16-7.44,1.09-10.01,3.01-.01.05-.03.11-.05.16-.82,2.47-2.45,4.86-5.34,6.82-1.3,2.89-1.88,5.8-2.19,8.17,0,.04-.01.07-.02.11h0c-.69,4.47-4.55,7.89-9.21,7.9-1.1,0-2.16-.19-3.14-.54,1.59,4.29,6.13,6.87,10.73,5.87,4.55-.99,7.61-5.14,7.35-9.65h0s0-.09-.01-.12c-.3-3.8-.25-9.05,2.48-13.99,2.1-3.49,5.54-6.52,10.91-7.46.03,0,.05-.01.08-.01-.46-.15-.83-.21-.96-.23h0Z"/><path class="cls-1" d="M54.88,71.53c.16,0,.32,0,.48.01h0s.15.01.15.01h0l.19.02c3.85.35,6.7.23,8.81-.21.08-.02.16-.04.24-.05.13-.11.27-.22.4-.32.01,0,.02-.01.02-.02.13-.1.26-.19.39-.28.02-.02.04-.03.06-.05.06-.05.13-.09.2-.14h-.02c1.19-.82,2.46-1.57,3.66-2.08.03-.05.06-.1.09-.15.46-.85.63-1.77.65-2.69,0-.05,0-.1,0-.15-1.04.81-2.59,1.33-4.9,1.31-2.15-.01-4.97-.49-8.66-1.64l-.18-.06s0,0,0,0l-.14-.04h0s-.04,0-.06-.01c-2.49,1.58-4.88,3.39-6.42,5.15-1.19,1.36-2.5,3.6-2.5,3.6-.03.04-.06.08-.09.12.19.75.5,1.46.92,2.11.01-.04.03-.07.04-.11,1.17-2.63,3.8-4.34,6.67-4.34"/><path class="cls-1" d="M84.36,106.38c-2.27-2.84-2.08-6.86.28-9.47h0c1.67-2.13,2.97-3.99,3.97-5.61.03-2.26.73-4.58,2.78-6.4.9-5.23-4.22-5.08-4.79-5.04h0c-.17.02-.35.05-.52.08,1.58.5,4.28,1.96,2.59,5.9-.61,1.43-1.81,3.19-3.87,5.36-1.34,1.41-3.03,3-5.17,4.77h0c-2.86,2.06-3.89,5.94-2.27,9.2.56,1.11,1.36,2.02,2.31,2.69,2.11,1.5,4.93,1.82,7.42.62-1.03-.45-1.96-1.16-2.72-2.1"/><path class="cls-1" d="M116.11,38.09c-2.3-2.33-5.04-4.21-8.09-5.52.05.03.09.06.13.09,5.46,3.56,9.57,9.19,11.06,16.06,2.84,13.08-4.84,25.98-17.35,29.92-.07.03-.15.06-.24.08,0,0-.01,0-.02,0-.21.06-.42.12-.63.17-1.34.44-3.08,1.33-3.32,1.45-1.5.85-2.62,1.79-3.45,2.78.5-.22,1.04-.43,1.62-.61.26-.07,2.14-.58,3.55-.72.22-.01.43-.02.65-.04h.02c.1,0,.18-.01.25-.03,13.06-1.23,23.27-12.23,23.25-25.61-.01-7.03-2.85-13.4-7.44-18.03"/><path class="cls-1" d="M58.4,94.1s1.11-.78,3.14-1.23c.69-.15,1.37-.32,2.03-.54,2.13-.72,3.9-1.58,5.36-2.55.06-.04.12-.08.18-.12.77-1.7,1.79-3.41,3.17-4.99.67-.72,1.41-1.39,2.23-2,.93-2.93.73-5.98.13-8.62-.03-.13-.06-.25-.09-.38-.19,2.14-.75,4.37-1.94,6.38-1.35,2.3-3.51,4.32-6.86,5.63-1.63.64-3.53,1.11-5.77,1.37-.69.08-1.4.09-2.1.1-2.07,0-3.32.54-3.32.54-3.63,1.28-6.23,4.74-6.22,8.81,0,.45.04.9.1,1.33.5,3.47,2.9,6.32,6.11,7.45-.15-.41-.28-.84-.38-1.28-.86-3.97.95-7.9,4.23-9.92"/><path class="cls-1" d="M41.98,60.87h0s4.83.83,10.02,1.07c1.81-1.18,4.18-2.25,6.58-3.14,2.32-.86,4.72-1.49,6.86-1.72,1.01-1,1.75-2.13,2.28-3.29-2.98,1.37-7.13,2.11-12.43,1.18-5.11-1.32-9.79-3.21-9.79-3.21h0c-2.33-.91-4.92-.68-7.03.52-1.13.65-2.13,1.57-2.87,2.75-1.56,2.47-1.64,5.46-.47,7.92.04-.04.07-.06.1-.1,1.81-1.61,4.29-2.38,6.76-1.98"/><path class="cls-3" d="M49.83,70.15c1.54-1.76,3.93-3.57,6.42-5.15-.13-.04-.27-.07-.4-.1-2.81-.6-5.74.51-7.44,2.84-.27.38-.51.78-.71,1.21-.74,1.6-.86,3.33-.46,4.91.03-.04.06-.08.09-.12,0,0,1.32-2.24,2.5-3.6"/><path class="cls-3" d="M38.13,66.34c3.19,2.01,7.23,1.56,9.88-.86,0,0,1.75-1.91,3.2-2.99.25-.18.51-.37.79-.55-5.18-.23-10.02-1.07-10.02-1.07h0c-2.47-.4-4.95.37-6.76,1.98-.04.03-.07.06-.1.1.65,1.35,1.66,2.53,3.02,3.39"/><path class="cls-3" d="M97.66,80.35c.24-.12,1.97-1.02,3.32-1.45.21-.06.42-.11.63-.17,0,0,.01,0,.02,0,.09-.02.17-.05.24-.08,12.51-3.94,20.19-16.84,17.35-29.92-1.49-6.87-5.6-12.5-11.06-16.06-.05-.03-.09-.06-.13-.09-3.13-1.35-6.58-2.09-10.2-2.09-10.95.02-20.28,6.89-23.96,16.55,0,0,0,0,0,.01-.86,2.3-2.46,4.75-5.22,6.3-.03.01-.06.03-.08.04-.08.05-.16.09-.24.12-.04.02-.08.04-.11.06-.04.02-.07.04-.1.05-.13.06-.26.12-.39.18-.52,1.16-1.26,2.29-2.28,3.29,3.99-.43,7.03.59,6.77,4.28-.01.14-.01.27,0,.38-.03.19-.07.38-.12.56-.21.89-.57,1.76-1.2,2.49-.2.23-.42.44-.68.64,0,.05,0,.1,0,.15-.02.91-.19,1.84-.65,2.69-.03.05-.05.1-.09.15,2.54-1.09,4.75-1.09,5.1,1.51,0,.06.01.12.01.19.01.12.02.26.02.39,0,.06,0,.14,0,.2h0c0,.07,0,.14.01.19,0,.01,0,.02,0,.04,0,.19.01.38.01.57,0,.7-.02,1.43-.09,2.16.03.12.06.25.09.38.6,2.63.8,5.69-.13,8.62,2.57-1.91,5.87-3.16,10.01-3.01.2,0,.4.02.61.03h0c.13.02.5.09.96.23.17-.03.35-.06.52-.08h0c.57-.03,5.69-.18,4.79,5.04.09-.08.18-.16.27-.23.69-.57,1.53-1.09,2.54-1.53,0,0,0,0,0,0,.83-.98,1.96-1.92,3.45-2.78M117.59,46.1c.67,0,1.22,1.94,1.22,4.33s-.55,4.33-1.22,4.33-1.22-1.94-1.22-4.33.55-4.33,1.22-4.33M112.53,39.91c.83,0,1.5,2.39,1.5,5.35s-.67,5.35-1.5,5.35-1.5-2.39-1.5-5.35.67-5.35,1.5-5.35"/><path class="cls-3" d="M90.44,98.63c-.78-1.56-1.86-4.4-1.82-7.33-1,1.62-2.3,3.49-3.97,5.61h0c-2.36,2.62-2.56,6.63-.28,9.47.76.94,1.69,1.64,2.72,2.1.02-.01.05-.02.08-.04,3.6-1.8,5.08-6.2,3.27-9.82"/><path class="cls-3" d="M51.24,78.67c3.3,1.54,7.08.35,9.12-2.55,0,0,.01-.01.03-.04.26-.36,2.15-2.94,4.36-4.77-.08.02-.16.04-.24.05-2.11.44-4.96.56-8.81.21l-.19-.02h-.15s0-.01,0-.01c-.16-.01-.32-.01-.48-.01-2.87,0-5.5,1.7-6.67,4.34-.01.04-.03.07-.04.11.72,1.13,1.77,2.08,3.08,2.69"/><path class="cls-3" d="M66.9,97.95h0s.01-.08.02-.12c.32-2.37.89-5.28,2.19-8.17-.06.04-.12.08-.18.12-1.46.97-3.22,1.83-5.36,2.55-.66.22-1.35.39-2.03.54-2.02.44-3.14,1.23-3.14,1.23-3.28,2.01-5.09,5.94-4.23,9.92.1.44.22.87.38,1.28.98.35,2.04.54,3.14.54,4.66-.01,8.52-3.43,9.21-7.89"/></g></svg>